<?xml version="1.0" encoding="UTF-8" standalone="no"?>
<!DOCTYPE svg PUBLIC "-//W3C//DTD SVG 1.1//EN" "http://www.w3.org/Graphics/SVG/1.1/DTD/svg11.dtd">
<svg width="100%" height="100%" viewBox="0 0 240 240" version="1.1" xmlns="http://www.w3.org/2000/svg" xmlns:xlink="http://www.w3.org/1999/xlink" xml:space="preserve" xmlns:serif="http://www.serif.com/" style="fill-rule:evenodd;clip-rule:evenodd;stroke-linejoin:round;stroke-miterlimit:2;">
    <g transform="matrix(1,0,0,1,-178.702,-197.223)">
        <g transform="matrix(1,0,0,1,300.194,198.565)">
            <rect x="-1.258" y="-1.342" width="119.086" height="118.973" style="fill:rgb(255,56,0);"/>
        </g>
        <g transform="matrix(1,0,0,1,180.118,198.946)">
            <rect x="-1.258" y="-1.342" width="119.086" height="118.973" style="fill:rgb(235,235,235);"/>
        </g>
        <g transform="matrix(1,0,0,1,300.035,319.065)">
            <rect x="-1.258" y="-1.342" width="119.086" height="118.973" style="fill:rgb(235,235,235);"/>
        </g>
        <g transform="matrix(1,0,0,1,179.959,319.445)">
            <rect x="-1.258" y="-1.342" width="119.086" height="118.973" style="fill:rgb(0,255,16);"/>
        </g>
        <g transform="matrix(1,0,0,1,-7.92275,50.3193)">
            <g transform="matrix(66.6667,0,0,66.6667,228.237,229.882)">
                <path d="M0.254,0.011C0.181,0.011 0.106,-0.007 0.028,-0.042L0.067,-0.142C0.095,-0.129 0.124,-0.119 0.152,-0.112C0.18,-0.105 0.207,-0.101 0.232,-0.101C0.258,-0.101 0.281,-0.106 0.301,-0.115C0.321,-0.124 0.336,-0.137 0.347,-0.154C0.358,-0.172 0.364,-0.193 0.364,-0.218C0.364,-0.25 0.355,-0.273 0.338,-0.289C0.32,-0.304 0.295,-0.315 0.262,-0.321C0.229,-0.326 0.188,-0.329 0.141,-0.329L0.07,-0.329L0.084,-0.704L0.483,-0.704L0.481,-0.594L0.185,-0.594L0.225,-0.619L0.214,-0.403L0.177,-0.433L0.237,-0.433C0.304,-0.433 0.358,-0.425 0.398,-0.408C0.439,-0.391 0.468,-0.367 0.487,-0.336C0.505,-0.305 0.514,-0.269 0.514,-0.226C0.514,-0.174 0.503,-0.13 0.481,-0.095C0.458,-0.06 0.427,-0.034 0.388,-0.016C0.348,0.002 0.304,0.011 0.254,0.011Z" style="fill-rule:nonzero;"/>
            </g>
            <g transform="matrix(66.6667,0,0,66.6667,264.682,229.882)">
            </g>
        </g>
        <g transform="matrix(1,0,0,1,-8.79283,171.574)">
            <g transform="matrix(66.6667,0,0,66.6667,228.237,229.882)">
                <path d="M0.035,-0L0.035,-0.12C0.111,-0.183 0.173,-0.236 0.221,-0.281C0.27,-0.326 0.306,-0.366 0.329,-0.402C0.352,-0.437 0.364,-0.472 0.364,-0.507C0.364,-0.542 0.353,-0.567 0.331,-0.584C0.309,-0.601 0.281,-0.609 0.247,-0.609C0.231,-0.609 0.214,-0.607 0.195,-0.604C0.176,-0.6 0.157,-0.594 0.137,-0.588L0.153,-0.612L0.135,-0.499L0.05,-0.499L0.039,-0.678C0.08,-0.691 0.121,-0.7 0.16,-0.706C0.2,-0.713 0.237,-0.716 0.271,-0.716C0.319,-0.716 0.361,-0.71 0.397,-0.697C0.434,-0.684 0.462,-0.664 0.483,-0.636C0.504,-0.608 0.514,-0.572 0.514,-0.527C0.514,-0.478 0.502,-0.431 0.477,-0.387C0.452,-0.342 0.417,-0.296 0.37,-0.25C0.323,-0.203 0.266,-0.152 0.2,-0.096L0.2,-0.112L0.529,-0.112L0.529,-0L0.035,-0Z" style="fill-rule:nonzero;"/>
            </g>
            <g transform="matrix(66.6667,0,0,66.6667,265.771,229.882)">
            </g>
        </g>
        <g transform="matrix(1,0,0,1,109.905,171.227)">
            <g transform="matrix(66.6667,0,0,66.6667,228.237,229.882)">
                <path d="M0.351,-0.184L0.387,-0.155L0.023,-0.155L0.008,-0.254L0.326,-0.717L0.494,-0.704L0.494,-0.239L0.459,-0.265L0.598,-0.265L0.598,-0.155L0.459,-0.155L0.494,-0.184L0.494,-0L0.351,-0L0.351,-0.184ZM0.389,-0.265L0.354,-0.239L0.354,-0.636L0.402,-0.628L0.12,-0.214L0.093,-0.265L0.389,-0.265Z" style="fill-rule:nonzero;"/>
            </g>
            <g transform="matrix(66.6667,0,0,66.6667,268.815,229.882)">
            </g>
        </g>
        <g transform="matrix(1,0,0,1,-11.882,33.311)">
            <g transform="matrix(66.6667,0,0,66.6667,336.139,246.865)">
                <path d="M0.323,-0.064L0.296,-0.101L0.427,-0.072L0.427,-0L0.052,-0L0.052,-0.072L0.208,-0.099L0.18,-0.064L0.18,-0.586L0.219,-0.584L0.053,-0.492L0.007,-0.579L0.204,-0.708L0.323,-0.708L0.323,-0.064Z" style="fill-rule:nonzero;"/>
            </g>
            <g transform="matrix(66.6667,0,0,66.6667,364.917,246.865)">
                <path d="M0.313,0.012C0.25,0.012 0.199,-0.001 0.16,-0.028C0.12,-0.055 0.092,-0.094 0.074,-0.148C0.055,-0.201 0.046,-0.267 0.046,-0.346C0.046,-0.428 0.056,-0.496 0.075,-0.551C0.093,-0.606 0.123,-0.647 0.165,-0.675C0.206,-0.702 0.259,-0.716 0.326,-0.716C0.392,-0.716 0.444,-0.703 0.482,-0.677C0.52,-0.651 0.547,-0.612 0.563,-0.56C0.58,-0.507 0.588,-0.442 0.588,-0.364C0.588,-0.282 0.578,-0.213 0.559,-0.157C0.54,-0.101 0.51,-0.059 0.47,-0.031C0.43,-0.002 0.378,0.012 0.313,0.012ZM0.316,-0.097C0.347,-0.097 0.372,-0.106 0.39,-0.125C0.407,-0.144 0.42,-0.173 0.427,-0.212C0.435,-0.25 0.439,-0.299 0.439,-0.358C0.439,-0.417 0.436,-0.465 0.429,-0.501C0.421,-0.538 0.409,-0.565 0.392,-0.582C0.374,-0.599 0.351,-0.607 0.321,-0.607C0.289,-0.607 0.264,-0.598 0.245,-0.579C0.227,-0.56 0.213,-0.532 0.206,-0.494C0.198,-0.456 0.194,-0.408 0.194,-0.35C0.194,-0.293 0.198,-0.246 0.206,-0.208C0.213,-0.171 0.226,-0.143 0.244,-0.124C0.262,-0.106 0.286,-0.097 0.316,-0.097Z" style="fill-rule:nonzero;"/>
            </g>
            <g transform="matrix(66.6667,0,0,66.6667,407.228,246.865)">
            </g>
        </g>
    </g>
</svg>
